name rise38.3101peak57.3503fall81.6963.mot
datacolumns 19
datarows 14
range 11.54663000000000 11.56829700000000
endheader
time	ground_force1_vx	ground_force1_vy	ground_force1_vz	ground_force1_px	ground_force1_py	ground_force1_pz	ground_force2_vx	ground_force2_vy	ground_force2_vz	ground_force2_px	ground_force2_py	ground_force2_pz	ground_torque1_x	ground_torque1_y	ground_torque1_z	ground_torque2_x	ground_torque2_y	ground_torque2_z	
11.54663000000000	-51.99180800000000	824.47355700000003	59.43298500000000	0.15894900000000	0.00000000000000	0.08488000000000	-6.54508300000000	45.21119600000000	8.86067100000000	0.40818300000000	0.00000000000000	-0.07804900000000	0.00000000000000	27.96257200000000	0.00000000000000	0.00000000000000	6.86064700000000	0.00000000000000	
11.54829100000000	-52.00199000000000	821.53762200000006	59.19915700000000	0.15837500000000	0.00000000000000	0.08487300000000	-7.11916900000000	51.47744200000000	9.83304200000000	0.40859000000000	0.00000000000000	-0.07871600000000	0.00000000000000	27.78558300000000	0.00000000000000	0.00000000000000	7.64213600000000	0.00000000000000	
11.54996300000000	-52.01466200000000	818.45399699999996	58.92864500000000	0.15780100000000	0.00000000000000	0.08486000000000	-7.58835700000000	57.63367300000000	10.71525600000000	0.40899300000000	0.00000000000000	-0.07934600000000	0.00000000000000	27.59996200000000	0.00000000000000	0.00000000000000	8.36215700000000	0.00000000000000	
11.55162800000000	-52.03064100000000	815.22338300000001	58.62115300000000	0.15722500000000	0.00000000000000	0.08484300000000	-7.94159400000000	63.61752900000000	11.49340000000000	0.40940400000000	0.00000000000000	-0.07994000000000	0.00000000000000	27.40592800000000	0.00000000000000	0.00000000000000	9.01045600000000	0.00000000000000	
11.55329700000000	-52.05071300000000	811.84656199999995	58.27646500000000	0.15665000000000	0.00000000000000	0.08482000000000	-8.17353700000000	69.39284700000000	12.16014800000000	0.40983600000000	0.00000000000000	-0.08050300000000	0.00000000000000	27.20371700000000	0.00000000000000	0.00000000000000	9.58170300000000	0.00000000000000	
11.55495700000000	-52.07563000000000	808.32439099999999	57.89444800000000	0.15607600000000	0.00000000000000	0.08479300000000	-8.28410800000000	74.94881599999999	12.71434400000000	0.41029700000000	0.00000000000000	-0.08103600000000	0.00000000000000	26.99358200000000	0.00000000000000	0.00000000000000	10.07517100000000	0.00000000000000	
11.55662800000000	-52.10610600000000	804.65779999999995	57.47505500000000	0.15550200000000	0.00000000000000	0.08476000000000	-8.27769800000000	80.29718500000000	13.16015900000000	0.41079200000000	0.00000000000000	-0.08154100000000	0.00000000000000	26.77578800000000	0.00000000000000	0.00000000000000	10.49410500000000	0.00000000000000	
11.55829700000000	-52.14281400000000	800.84778500000004	57.01832500000000	0.15493100000000	0.00000000000000	0.08472100000000	-8.16214300000000	85.46809100000000	13.50594700000000	0.41132700000000	0.00000000000000	-0.08202200000000	0.00000000000000	26.55061400000000	0.00000000000000	0.00000000000000	10.84487200000000	0.00000000000000	
11.55996400000000	-52.18637900000000	796.89540299999999	56.52438200000000	0.15436200000000	0.00000000000000	0.08467700000000	-7.94758900000000	90.50509500000000	13.76295900000000	0.41190500000000	0.00000000000000	-0.08248000000000	0.00000000000000	26.31835100000000	0.00000000000000	0.00000000000000	11.13600200000000	0.00000000000000	
11.56163100000000	-52.23738200000000	792.80176900000004	55.99343700000000	0.15379700000000	0.00000000000000	0.08462800000000	-7.64538200000000	95.45997400000000	13.94404400000000	0.41252800000000	0.00000000000000	-0.08291600000000	0.00000000000000	26.07929600000000	0.00000000000000	0.00000000000000	11.37721800000000	0.00000000000000	
11.56329000000000	-52.29634900000000	788.56804999999997	55.42578700000000	0.15323500000000	0.00000000000000	0.08457300000000	-7.26704100000000	100.38773800000000	14.06244400000000	0.41319700000000	0.00000000000000	-0.08333200000000	0.00000000000000	25.83375900000000	0.00000000000000	0.00000000000000	11.57853800000000	0.00000000000000	
11.56496200000000	-52.36375300000000	784.19545900000003	54.82181900000000	0.15267800000000	0.00000000000000	0.08451200000000	-6.82340400000000	105.34222100000000	14.13075900000000	0.41391200000000	0.00000000000000	-0.08372900000000	0.00000000000000	25.58205500000000	0.00000000000000	0.00000000000000	11.74950100000000	0.00000000000000	
11.56662900000000	-52.44000500000000	779.68525299999999	54.18200200000000	0.15212600000000	0.00000000000000	0.08444500000000	-6.32397200000000	110.37250200000000	14.16014700000000	0.41467200000000	0.00000000000000	-0.08410900000000	0.00000000000000	25.32450100000000	0.00000000000000	0.00000000000000	11.89856300000000	0.00000000000000	
11.56829700000000	-52.52545600000000	775.03872500000000	53.50689200000000	0.15158100000000	0.00000000000000	0.08437200000000	-5.77647400000000	115.52028900000001	14.15976100000000	0.41547700000000	0.00000000000000	-0.08447200000000	0.00000000000000	25.06142200000000	0.00000000000000	0.00000000000000	12.03267200000000	0.00000000000000	
